<?xml version="1.0" encoding="UTF-8"?>
<svg xmlns="http://www.w3.org/2000/svg" width="375" height="812" viewBox="0 0 375 812">
<defs>
<linearGradient id="g" x1="0" y1="0" x2="1" y2="1">
<stop offset="0%" stop-color="#6C63FF"/>
<stop offset="100%" stop-color="#4F46E5"/>
</linearGradient>
<filter id="shadow">
<feDropShadow dx="0" dy="4" stdDeviation="6" flood-opacity="0.2"/>
</filter>
</defs>

<rect width="375" height="812" fill="#F7F8FC"/>

<!-- Header -->
<rect width="375" height="120" fill="url(#g)"/>
<text x="24" y="45" font-family="Arial" font-size="22" font-weight="700" fill="white">Continue Lesson</text>
<text x="24" y="72" font-family="Arial" font-size="14" fill="white">UI/UX Design Basics</text>

<!-- Banner -->
<rect x="20" y="95" width="335" height="170" rx="20" fill="#FFFFFF" filter="url(#shadow)"/>
<rect x="35" y="110" width="305" height="110" rx="14" fill="#DAD7FF"/>
<polygon points="175,145 175,185 210,165" fill="#6C63FF"/>
<text x="35" y="245" font-family="Arial" font-size="18" font-weight="700">Lesson 4 • Wireframing</text>

<!-- Progress -->
<text x="20" y="295" font-family="Arial" font-size="18" font-weight="700">Course Progress</text>
<rect x="20" y="315" width="335" height="12" rx="6" fill="#E5E5F5"/>
<rect x="20" y="315" width="228" height="12" rx="6" fill="#6C63FF"/>
<text x="300" y="332" font-family="Arial" font-size="13" fill="#666">68%</text>

<!-- Lesson Topics -->
<text x="20" y="365" font-family="Arial" font-size="20" font-weight="700">Today's Lessons</text>

<rect x="20" y="390" width="335" height="70" rx="16" fill="white" filter="url(#shadow)"/>
<circle cx="50" cy="425" r="15" fill="#22C55E"/>
<text x="80" y="420" font-family="Arial" font-size="17" font-weight="700">Introduction</text>
<text x="80" y="442" font-family="Arial" font-size="13" fill="#666">Completed</text>

<rect x="20" y="475" width="335" height="70" rx="16" fill="white" filter="url(#shadow)"/>
<circle cx="50" cy="510" r="15" fill="#FBBF24"/>
<text x="80" y="505" font-family="Arial" font-size="17" font-weight="700">Wireframing Basics</text>
<text x="80" y="527" font-family="Arial" font-size="13" fill="#666">In Progress</text>

<rect x="20" y="560" width="335" height="70" rx="16" fill="white" filter="url(#shadow)"/>
<circle cx="50" cy="595" r="15" fill="#D1D5DB"/>
<text x="80" y="590" font-family="Arial" font-size="17" font-weight="700">Interactive Prototype</text>
<text x="80" y="612" font-family="Arial" font-size="13" fill="#666">Locked</text>

<!-- XP Card -->
<rect x="20" y="650" width="335" height="70" rx="18" fill="#FFF7E0" filter="url(#shadow)"/>
<text x="40" y="682" font-family="Arial" font-size="18" font-weight="700">⭐ Finish this lesson</text>
<text x="40" y="705" font-family="Arial" font-size="14" fill="#666">Earn +120 XP</text>

<!-- CTA -->
<rect x="32" y="738" width="311" height="52" rx="26" fill="#6C63FF"/>
<text x="187.5" y="770" text-anchor="middle" font-family="Arial" font-size="19" font-weight="700" fill="white">Continue Learning</text>

</svg>
